<?xml version="1.0" encoding="UTF-8" standalone="no"?>
<!DOCTYPE svg PUBLIC "-//W3C//DTD SVG 1.1//EN" 
  "http://www.w3.org/Graphics/SVG/1.1/DTD/svg11.dtd">
<svg xmlns="http://www.w3.org/2000/svg" xmlns:xlink="http://www.w3.org/1999/xlink" width="128" height="128">
  <linearGradient id="f" x1="28.868" x2="97.554" y1="23.645" y2="97.184" gradientUnits="userSpaceOnUse">
    <stop offset="0" stop-color="#9c0f0f"/>
    <stop offset=".5" stop-color="#e81919"/>
    <stop offset="1" stop-color="#cd1313"/>
  </linearGradient>
  <radialGradient id="k" cx="90.75" cy="110.253" r="24.501" gradientUnits="userSpaceOnUse" xlink:href="#a"/>
  <linearGradient id="a">
    <stop offset="0" stop-color="#fff"/>
    <stop offset="1" stop-color="#fff" stop-opacity="0"/>
  </linearGradient>
  <clipPath id="l">
    <path d="m112 82.502986c0 4.465301-2.79749 6.409952-5.27972 8.093625-5.10854 3.46508-14.939114 3.32536-20.720284 3.40638-.081 5.781159.16586 15.504599-3.29922 20.613139-1.68367 2.48224-5.29051 5.38687-8.20078 5.38687 2.31803 0 4.74284-1.33476 7.58402-4.08481 9.14197-8.84873 17.36714-16.13535 25.673154-25.297529 1.91895-2.116745 4.24283-3.641881 4.24283-8.117675z"/>
  </clipPath>
  <filter id="m" color-interpolation-filters="sRGB">
    <feGaussianBlur stdDeviation=".43"/>
  </filter>
  <linearGradient id="j" x1="86.882" x2="95.428" y1="93.756" y2="102.302" gradientUnits="userSpaceOnUse">
    <stop offset="0" stop-color="#fcfcfc"/>
    <stop offset=".523" stop-color="#f8f8f8"/>
    <stop offset=".723" stop-color="#f0efef"/>
    <stop offset=".89" stop-color="#e3e1e1"/>
    <stop offset="1" stop-color="#cecbcb"/>
  </linearGradient>
  <clipPath id="g">
    <path d="m17.000001 8-.000001 112h57.5c1.675283 0 3.914297-.56468 7-3.6 8.870045-8.72523 20.24047-19.851805 27.49904-27.175957 2.44056-2.462612 3.00096-4.47117 3.00096-6.724043v-74.5z"/>
  </clipPath>
  <filter id="i" width="1.225" height="1.241" x="-.113" y="-.121" color-interpolation-filters="sRGB">
    <feGaussianBlur stdDeviation="2.386"/>
  </filter>
  <radialGradient id="e" cx="64" cy="64.004" r="47.5" fx="63.793" fy="47.275" gradientTransform="matrix(1.6842105 -.08429519 .06886339 1.3758846 -48.196997 -18.663233)" gradientUnits="userSpaceOnUse" xlink:href="#a"/>
  <filter id="h" width="1.957" height="2.026" x="-.479" y="-.513" color-interpolation-filters="sRGB">
    <feGaussianBlur stdDeviation="10.141"/>
  </filter>
  <linearGradient id="d" x1="72" x2="72" y2="116.401" gradientUnits="userSpaceOnUse">
    <stop offset="0" stop-color="#eeecec"/>
    <stop offset=".4" stop-color="#f4f4f4"/>
    <stop offset="1" stop-color="#f6f5f5"/>
  </linearGradient>
  <filter id="c" color-interpolation-filters="sRGB">
    <feGaussianBlur stdDeviation="1.036"/>
  </filter>
  <filter id="b" color-interpolation-filters="sRGB">
    <feGaussianBlur stdDeviation="1.501"/>
  </filter>
  <path d="m17.000003 8.5v112h58.1875c2.115556 0 4.528919-1.77169 7-4.25.71234-.71442 1.440746-1.39395 2.15625-2.09375.415612-.40649.832187-.81443 1.25-1.21875 7.773958-7.40962 14.983407-14.022603 22.218747-22 .42065-.420645.81207-.811101 1.15625-1.1875 1.46444-1.497657 2.76158-2.837804 2.99375-5.8625l.0375-.73125v-74.65625z" filter="url(#b)" opacity=".262"/>
  <path fill-opacity=".701" d="m17.000004 8-.000001 112.2h57.746418c4.168166 0 7.728581-4.85625 20.853582-17.1 7.486357-6.9837 10.439577-10.889428 13.150087-13.599933 1.74325-1.743252 3.24991-3.03751 3.24991-7.200067v-74.3z" filter="url(#c)"/>
  <path fill="#fff" d="m17.000004 8-.000001 112h57.5c1.675283 0 3.914297-.56468 7-3.6 8.870045-8.72523 20.240467-19.851805 27.499037-27.175957 2.44056-2.462612 3.00096-4.47117 3.00096-6.724043v-74.5z"/>
  <path fill="url(#d)" d="m18.500003 9c-.339844 0-.5.2346178-.5.5v107.96875c0 .82158.679323 1.5 1.5 1.5h53.6875c.05307 0 .810384.0234 1.5.0313 1.777664-.0401 3.131974-.75374 4.356035-1.59328 1.051866-.29103 20.649835-19.619593 29.770952-28.809238 1.36239-1.372621 2.18546-3.948169 2.18546-4.895612l.00005-74.20192c0-.3227174-.16322-.5-.5-.5z"/>
  <path fill="url(#e)" d="m18.500003 9c-.339844 0-.5.2346178-.5.5v107.96875c0 .82158.679323 1.49953 1.5 1.5l54.5.0313c.05307.00003 3.273884-.008 3.9635.00005 6.540972-4.50361 22.637297-21.953284 31.582527-30.955094 1.47685-1.656484.4576-.370067 1.45391-1.607456l.00006-76.9375c0-.3227174-.16322-.5-.5-.5z" opacity=".847"/>
  <path fill="#2e3436" d="m55.78558 7.9500039c-1.20539 8.4828891 8.14254 19.5525001 22.1279 29.9756491-4.13236 16.166148-11.20185 34.417461-18.79751 49.566537l-.032.03185c-20.88175 10.664181-34.86061 21.69986-30.10162 29.02 1.14758 1.76514 2.56601 2.60362 4.13097 2.70769-10.95189-6.66511 12.3483-16.40898 19.46998-20.16428l.16012.19113c-7.2546 12.1835-14.44677 20.3178-19.6301 19.97315 7.45883 3.6448 17.74332-7.36221 27.1555-24.08246 15.09754-7.452483 33.79673-15.65854 51.7812-22.648977 0-2.327193 0-3.693578 0-6.434731-15.70976 5.07051-32.06711 11.420233-46.17717 18.125553 6.50581-13.633219 12.19064-29.315666 15.65925-43.673343 9.07201 6.340764 19.68551 12.317905 30.51792 17.201754 0-4.529014 0-4.833372 0-9.49282-10.17084-5.148549-20.15027-10.926415-28.62856-16.723928 1.64929-9.16072 2.18263-17.350311 1.15282-23.5727741-1.30883 0-1.78605 0-3.17027 0 .74474 5.5567931.13919 12.8647821-1.47306 21.1199321-10.61433-7.65662-18.26004-15.166338-19.95033-21.1199321-2.01966 0-2.23771 0-4.19502 0z" opacity=".066"/>
  <path fill="url(#f)" d="m47.53388 11.954967c-1.35476.0509-2.80371.426652-4.39467 1.133007-14.21907 6.313001-3.74407 20.798078 14.37422 34.051437.10997-2.541875.17643-5.02387.15259-7.410475-15.45847-10.991585-24.50615-21.691991-14.64888-25.93666 10.38595-4.472329 14.4716 8.193503 14.64888 25.93666.96688.687491 1.94568 1.363119 2.9603 2.051661-.37912-16.155869-3.78743-28.822561-11.74963-29.764386-.42449-.05021-.89122-.07821-1.34281-.06124zm13.09244 29.82563-1.85477-3.047151-2.35175 2.108616-.49374 3.205629 3.10646 6.076352 1.56328-.779863c10.43295 7.216864 22.88717 13.863789 34.57746 18.434322l3.46699 2.09528 6.56611.518762 3.61965-1.688878 1.18201-2.906734-5.89284-.835636c-13.96528-5.61361-30.52777-14.3851-43.48886-23.180699zm43.48886 23.180699c1.81916.731244 3.62523 1.403429 5.34074 2.021039.87989-.329401 1.74433-.677519 2.59408-.979897 0-1.213387 0-1.705464 0-3.000937-2.5073.524613-5.15842 1.170468-7.93482 1.959795zm5.34074 2.021039c-2.53338.948418-5.19858 1.970363-7.9348 3.123423 3.68506 1.218425 7.22283 2.161711 10.52888 2.817205 0-1.62583 0-3.108706 0-5.052596-.84345-.275465-1.69621-.564786-2.59408-.888032zm-7.9348 3.123423c-2.08786-.690317-4.18787-1.482767-6.34786-2.327256-13.22712 4.574686-27.71256 11.159495-39.49094 18.189347l-3.41144.701198-2.63261 4.889126-3.53532 4.786813 3.98807 4.129374 3.1193-5.319973c13.7891-8.584914 32.40421-18.345492 48.3108-25.048629zm-48.3108 25.048629c-1.68489 1.048986-3.29692 2.087675-4.82192 3.092801-3.53593 10.419572-7.65996 17.410072-11.59704 17.117582 6.08149 3.05721 12.00705-6.18569 16.41896-20.210383zm-16.41896 20.210383c-9.28183-5.68326 7.20396-14.08866 11.59704-17.117582.99585-2.93453 1.92338-6.125491 2.8077-9.523378-13.84776 8.950161-22.53121 18.23105-17.88384 24.37494 1.11995 1.48058 2.30423 2.17873 3.4791 2.26602zm14.40474-26.64096c1.43795-.929385 2.94516-1.836188 4.48622-2.755961 2.73191-11.435346 4.54168-24.580654 4.91348-36.623669-1.05031-.726535-2.07654-1.469018-3.08237-2.204769-.58663 13.559934-3.01027 28.877572-6.31733 41.584399z"/>
  <path d="m114.4 82.502986c0 4.465301-4.99749 6.609952-7.47972 8.293625-5.10854 3.46508-14.739114 3.52536-20.520284 3.60638-.081 5.781159-.03414 15.304599-3.49922 20.413139-1.68367 2.48224-5.79051 8.68687-8.70078 8.68687-2.091359 1.5337 3.488204 8.21101 6.734971 5.31989 9.501888-8.46107 35.131683-30.022704 43.350823-39.262889 2.04044-2.29392-4.90514-9.844666-9.88579-7.057015z" clip-path="url(#g)" filter="url(#h)" opacity=".277" transform="translate(.000003)"/>
  <path d="m113.9 82.502986c0 4.465301-4.49749 6.609952-6.97972 8.293625-5.10854 3.46508-14.739114 3.52536-20.520284 3.60638-.081 5.781159.76586 15.304599-2.69922 20.413139-1.68367 2.48224-5.79051 7.98687-8.70078 7.98687-2.091359 1.5337 3.488204 11.21101 6.734971 8.31989 9.501888-8.46107 45.998943-30.20138 54.218083-39.441569 2.04044-2.29392-17.0724-11.965986-22.05305-9.178335z" clip-path="url(#g)" filter="url(#i)" opacity=".401" transform="translate(.000003)"/>
  <path fill="url(#j)" d="m112 82.502986c0 4.465301-2.79749 6.409952-5.27972 8.093625-5.10854 3.46508-14.939111 3.32536-20.720281 3.40638-.081 5.781159.16586 15.504599-3.29922 20.613139-1.68367 2.48224-5.29051 5.38687-8.20078 5.38687 2.31803 0 4.74284-1.33476 7.58402-4.08481 9.14197-8.84873 17.36714-16.13535 25.673151-25.297529 1.91895-2.116745 4.24283-3.641881 4.24283-8.117675z"/>
  <path fill="#fff" d="m112.01875 83.2125c-.31643 3.899106-3.52291 5.902807-5.85 7.48125-5.10854 3.46508-15.337577 2.32523-21.118747 2.40625-.081 5.781159.85258 16.31646-2.6125 21.425-1.473211 2.17196-4.099456 4.6601-6.7625 5.25 1.980459-.3623 3.884931-1.66139 6.26875-3.96875.339117-.38853.574297-.67895 1.10625-1.5 3.46508-5.10854 2.8315-14.51259 2.9125-20.29375 5.78117-.08102 15.810207.25883 20.918747-3.20625.46542-.315689 1.59399-1.187744 2.00625-1.6 1.53629-1.536293 2.90171-2.613421 3.13125-5.99375zm-36.343747 36.5625c-.157658.0349-.313437.0414-.46875.0625.156991-.0169.310443-.0335.46875-.0625z"/>
  <path fill="none" stroke="url(#k)" stroke-width="1.2" d="m117.31456 81.861283-44.675455 43.487067" clip-path="url(#l)" filter="url(#m)" transform="translate(.000003)"/>
</svg>
