/* XPM */
static char *Utilities_terminal_[] = {
/* columns rows colors chars-per-pixel */
"48 48 190 2 ",
"   c None",
".  c #090C06",
"X  c #0C0F08",
"o  c #0E1209",
"O  c #11160C",
"+  c #151B0E",
"@  c #181E0F",
"#  c #191D13",
"$  c #161A11",
"%  c #1D2513",
"&  c #1E221A",
"*  c #1F2916",
"=  c #212B17",
"-  c #21251A",
";  c #242C1A",
":  c #282E1F",
">  c #26341B",
",  c #29341B",
"<  c #2D391E",
"1  c #292D21",
"2  c #272C20",
"3  c #2E3325",
"4  c #2F3C20",
"5  c #2F3428",
"6  c #313E20",
"7  c #31362A",
"8  c #32372A",
"9  c #354323",
"0  c #384725",
"q  c #3C4D27",
"w  c #3F4E29",
"e  c #354C27",
"r  c #3B5029",
"t  c #404F29",
"y  c #43542B",
"u  c #46582D",
"i  c #485A2E",
"p  c #425B32",
"a  c #4E5B3C",
"s  c #4A5736",
"d  c #4E6131",
"f  c #436236",
"g  c #556936",
"h  c #54653B",
"j  c #5C723A",
"k  c #4F5744",
"l  c #52564F",
"z  c #535750",
"x  c #555952",
"c  c #595D55",
"v  c #5C5F59",
"b  c #4E6642",
"n  c #4B6D42",
"m  c #5B6A44",
"M  c #5D6C4A",
"N  c #586947",
"B  c #5D714A",
"V  c #5A7543",
"C  c #5E625A",
"Z  c #606E4D",
"A  c #657B42",
"S  c #647C4F",
"D  c #64734B",
"F  c #62665E",
"G  c #657352",
"H  c #687555",
"J  c #6B7B55",
"K  c #6E7B59",
"L  c #617A53",
"P  c #717E5D",
"I  c #626262",
"U  c #666963",
"Y  c #696D65",
"T  c #6C6C6B",
"R  c #6D7169",
"E  c #72756E",
"W  c #747473",
"Q  c #777973",
"!  c #797B76",
"~  c #7C7C7B",
"^  c #5D8154",
"/  c #6E834A",
"(  c #6C8354",
")  c #64855D",
"_  c #73835C",
"`  c #788B59",
"'  c #7E915E",
"]  c #6E8D67",
"[  c #768461",
"{  c #798764",
"}  c #7B8B64",
"|  c #7E8C6A",
" . c #6F9264",
".. c #799467",
"X. c #7D8179",
"o. c #7C9E73",
"O. c #759570",
"+. c #818E6C",
"@. c #809166",
"#. c #84936C",
"$. c #86996B",
"%. c #899A6D",
"&. c #82847D",
"*. c #869471",
"=. c #899775",
"-. c #8C9C73",
";. c #8E9C79",
":. c #859B77",
">. c #919F7D",
",. c #8FA174",
"<. c #83A47A",
"1. c #89A87B",
"2. c #91A375",
"3. c #93A37B",
"4. c #97A87C",
"5. c #9BAD7E",
"6. c #92D151",
"7. c #9FD665",
"8. c #848582",
"9. c #868983",
"0. c #8A8C85",
"q. c #8C8D8B",
"w. c #8E918A",
"e. c #91938D",
"r. c #95988F",
"t. c #949593",
"y. c #979994",
"u. c #999B96",
"i. c #999A99",
"p. c #96A382",
"a. c #9CAC83",
"s. c #98A584",
"d. c #8FB084",
"f. c #9FB182",
"g. c #92B48A",
"h. c #9FA299",
"j. c #9DA097",
"k. c #92B18B",
"l. c #A1B285",
"z. c #A5B58A",
"x. c #A9B88F",
"c. c #A8B88E",
"v. c #A2A49D",
"b. c #A5A89F",
"n. c #A9B991",
"m. c #A2BF97",
"M. c #A4A6A2",
"N. c #A6A9A2",
"B. c #AAAAA7",
"V. c #ACADAA",
"C. c #AFB0AD",
"Z. c #B1B2AF",
"A. c #B4B5B2",
"S. c #B7B9B5",
"D. c #B8B9B6",
"F. c #BCBDBB",
"G. c #A1C09E",
"H. c #B3CFAF",
"J. c #B5D0AD",
"K. c #BDD9BA",
"L. c #ABC9A7",
"P. c #C1C2BF",
"I. c #D7EEBF",
"U. c #C4C5C3",
"Y. c #C8C9C6",
"T. c #CBCCCA",
"R. c #CDCECC",
"E. c #CBCDCA",
"W. c #CFD0CE",
"Q. c #C6DFC3",
"!. c #D0D1CF",
"~. c #D4D5D3",
"^. c #DCDDDB",
"/. c #CBE4C8",
"(. c #D8E9D7",
"). c #DAF1DA",
"_. c #E0E1DF",
"`. c #E4E4E3",
"'. c #EBEBEA",
"]. c #E8E8E7",
"[. c #E3F7E3",
"{. c #EDFAED",
"}. c #F0F0EF",
"|. c #F1F1F0",
" X c #F3F3F3",
".X c #F2F3F2",
"XX c #F2F2F1",
"oX c #F1F1F0",
"OX c #F3FCF3",
"+X c #FAFDFB",
/* pixels */
"                                                                                                ",
"                                                                                                ",
"                                                                                                ",
"        M.v.v.v.v.v.v.v.v.v.v.v.v.v.v.v.v.h.h.u.u.u.y.y.r.e.e.e.w.w.0.0.0.9.9.&.&.&.&.&.        ",
"      N.~.'. X X X X X X X X X X X X X X X X X X X X X X X X X X X X X X X X X X X}.'.Y.&.      ",
"    N.'.`.!.T.T.T.T.T.T.T.T.T.T.T.T.T.T.T.T.T.T.T.T.T.T.T.T.T.T.T.T.T.T.T.T.T.R.T.T.W._.`.X.    ",
"  b.~.`.T.T.T.T.T.T.T.T.T.T.T.T.T.T.T.T.T.T.T.T.T.T.T.T.T.T.T.T.T.T.T.T.T.T.T.T.T.T.T.T.^.U.Q   ",
"  b.'.~.T.A.T I I I I I I I I I I I Y Y T T T T W W W W W ~ ~ ~ ~ ~ ~ 8.8.8.8.8.8.q.S.T.W.`.E   ",
"  v. XR.T.T k 8 8 8 8 8 8 8 7 7 7 7 7 7 7 7 7 7 7 7 7 7 5 5 5 5 5 5 5 3 5 3 3 3 3 s q.T.T.'.Y   ",
"  v. XR.T.I 7 7 7 7 7 7 7 7 7 7 7 7 7 7 7 7 7 7 7 7 7 7 5 5 5 5 5 5 5 3 5 5 3 3 3 3 q.U.U.`.Y   ",
"  v. XR.T.I 7 7 n.n.n.x.c.c.c.c.c.c.z.z.z.z.z.l.l.l.l.l.l.f.l.f.f.f.a.f.5.5.5.5.5 3 w.F.P.`.U   ",
"  v. XR.T.I 3 7 s.s.p.p.p.p.3.3.3.>.>.>.>.;.;.;.;.;.;.;.-.;.=.=.=.=.=.*.#.#.#.#.3 3 e.D.F._.F   ",
"  v. XR.T.I 3 5 a.a.a.a.a.a.a.a.a.a.a.a.5.5.4.4.4.4.4.4.4.4.3.2.2.2.2.2.2.2.2.,.3 1 e.S.S.^.F   ",
"  v. XR.T.I 3 3 ;.;.=.=.=.=.=.=.*.*.*.*.*.*.#.#.#.#.#.+.+.| | | | } } } } { } } : ; t.Z.A.^.C   ",
"  h. XR.T.I 1 3 3.3.3.3.3.3.2.,.2.;.;.-.-.-.-.-.-.=.%.%.%.%.$.$.$.$.$.$.' ` / A % % t.V.C.~.c   ",
"  j. XR.T.I 2 1 +.+.| | | | | | } { { { { { { [ [ [ [ _ _ _ _ _ J D h d d d d d % % t.V.B.~.c   ",
"  u. XR.T.I - 1 *.*.#.%.#.#.@.@.@.@.@.@.@.@.@.} } } } } } ` ( A j j j j j j j j % % y.M.M.!.x   ",
"  y. XR.T.Y - - [ [ _ <.O.[ P P P K K K K K J J J J J G m i i i i i i i i i i i % % u.M.v.R.z   ",
"  r. XR.T.Y - - } } } m.).J.<.} _ _ _ _ _ _ _ _ _ J V g g g g g g g g g g g g g % @ i.i.i.Y.z   ",
"  e. XR.T.T - - H H H g.OX+X[.H.:.J G Z Z Z M M h y y y y y y y y y y y y y y y @ @ i.u.u.U.z   ",
"  w.}.T.U.T & - J J J d.).{.+X+X{.K.1.( S D m d d d d d d d d d d d d d d d d d @ + i.t.t.P.z   ",
"  0.'.U.P.W & & M N N B L o.G./.{.OX{./.o.p q q q q q q q q q q q q q w w w w w @ + i.e.w.F.z   ",
"  0.'.P.F.W # & M M M m m m B S  .g./.[.G.d u u u u u u u u u u u u u u u u u u + + i.q.0.D.z   ",
"  9.'.F.D.W # # a a a a b N ] g.H.).[.).<.r 9 9 9 9 9 9 0 0 0 0 0 0 0 0 0 0 0 0 + O u.0.9.A.z   ",
"  8.'.S.A.W $ # a a a  .L.(.{.OXOX(.g.V u w w w w w w w w w w w w t y y y y w w O O u.8.&.C.z   ",
"  &.'.A.C.~ O O 9 9 9 o.OX+X{./.<.f 0 6 6 6 6 6 6 6 6 6 6 9 9 9 9 9 9 9 9 9 9 9 O O u.&.~ B.z   ",
"  X.].C.B.~ o O 9 9 9 o.[.K.o.p q 9 9 9 9 9 9 9 9 0 0 0 0 0 0 0 9 0 0 0 0 0 0 0 O O u.~ Q M.z   ",
"  X.`.V.M.~ o o < < < ^ ) e < < < < < < < < < < < < < < < < < < < < < < < < < < O o y.! Q M.z   ",
"  ! `.N.v.~ o o < < 6 e 4 4 4 4 6 6 4 4 6 6 6 6 6 6 6 6 6 6 6 6 6 6 6 6 6 6 6 6 o o y.! Q v.z   ",
"  Q `.v.i.8.o o > > > > > > > > > > > > > > , , , , , , , , , , , , , , , , , , o o y.! Q v.z   ",
"  E `.i.u.8.X X , , , , , , , , , < < n ) ) ) ) ) ) ) ) ) ) b < < < < < < < < < o X t.! Q i.z   ",
"  E `.u.t.8.X X = = = = = = = = = = ; O.{.{.{.{.{.{.{.{.{.{.d.> = = = ; ; ; ; ; X X t.! Q i.z   ",
"  R _.t.w.8.X X = = = = = = = = = = ; ) G.G.G.G.G.G.G.G.G.G.] > ; ; ; ; ; ; ; ; X X t.! Q u.z   ",
"  Y (.e.0.0.. X % % % % % % % % % % % > > > > > > > > > > > > * % % % % % % % % X X t.! Q u.z   ",
"  Y ^.q.9.0.. . X X X X X X X X X X X X X X X X X X X X X X X X X X X X X X X X . . t.! Q t.z   ",
"  U ^.0.&.9.& X . . . . . . . . . . . . . . . . . . . . . . . . . . . . . . . . . & i.Q Q t.z   ",
"  F ^.8.~ &.0.q.q.q.t.t.t.t.t.t.i.i.i.i.i.i.i.i.i.i.i.i.i.i.i.i.i.i.i.i.i.i.i.i.i.y.8.Q Q e.z   ",
"  C ^.&.Q Q Q Q Q Q Q Q Q Q Q Q Q Q Q Q Q Q Q Q Q Q Q Q Q Q Q Q Q Q Q Y U Y E Q Q Q Q Q Q e.l   ",
"  C T.0.Q Q Q Q Q Q Q Q Q Q Q Q Q Q Q Q Q Q Q Q Q Q Q Q Q Q Q Q I.7.Q U Q Q Q 8.Q Q Q Q ! 0.x   ",
"  v v.S.Q Q Q Q Q Q Q Q Q Q Q Q Q Q Q Q Q Q Q Q Q Q Q Q Q Q Q Q 7.6.Q W Q Q Q e.Q Q Q Q 8.W x   ",
"    v P.A.8.Q Q Q Q Q Q Q Q Q Q Q Q Q Q Q Q Q Q Q Q Q Q Q Q Q Q Q Q Q ~ 8.q.t.e.Q Q ! 8.&.x     ",
"      c i.U.R.R.T.T.Y.U.U.U.P.F.F.F.D.S.A.A.Z.Z.V.V.B.B.N.M.M.v.v.i.i.u.u.y.t.t.e.e.9.W x       ",
"        x x z z z z z z z z z z z z z z z z z z z z z z z z z z z z z z z z z z z z x x         ",
"                                                                                                ",
"                                                                                                ",
"                                                                                                ",
"                                                                                                ",
"                                                                                                "
};
