/* XPM */
static char *utilities_terminal[] = {
/* columns rows colors chars-per-pixel */
"48 48 96 2 ",
"   c None",
".  c #212426",
"X  c #242729",
"o  c #262A2B",
"O  c #292D2E",
"+  c #2A2F30",
"@  c #2E3235",
"#  c #303537",
"$  c #313638",
"%  c #353A3C",
"&  c #383D3F",
"*  c #373E40",
"=  c #383F41",
"-  c #3C4345",
";  c #3F4748",
":  c #3F4849",
">  c #414748",
",  c #424B4C",
"<  c #454F50",
"1  c #465152",
"2  c #4A5455",
"3  c #4C5758",
"4  c #4D595A",
"5  c #525B5C",
"6  c #585E60",
"7  c #5C6868",
"8  c #606969",
"9  c #757B7C",
"0  c #7A7F81",
"q  c #7D8485",
"w  c #7D8586",
"e  c #7E8586",
"r  c #7E8686",
"t  c #7F8686",
"y  c #7F8687",
"u  c #7F8787",
"i  c #7B8282",
"p  c #7F8788",
"a  c #7F8888",
"s  c #808888",
"d  c #818889",
"f  c #818989",
"g  c #81898A",
"h  c #818A8A",
"j  c #828A8A",
"k  c #828B8B",
"l  c #838B8B",
"z  c #828C8C",
"x  c #838C8C",
"c  c #838D8D",
"v  c #848D8D",
"b  c #848D8E",
"n  c #AAB0B0",
"m  c #B3B9BA",
"M  c #B6BCBD",
"N  c #BABFC0",
"B  c #BAC0C0",
"V  c #BAC1C1",
"C  c #BBC2C2",
"Z  c #BCC2C2",
"A  c #C0C6C6",
"S  c #C1C6C6",
"D  c #C2C7C7",
"F  c #C3C8C8",
"G  c #C6C9C9",
"H  c #C4C9CA",
"J  c #C5CACA",
"K  c #C6CACB",
"L  c #C6CBCB",
"P  c #C8CCCC",
"I  c #C8CDCD",
"U  c #C9CECE",
"Y  c #CBCFCF",
"T  c #CED1D1",
"R  c #CDD1D2",
"E  c #CFD3D3",
"W  c #CFD3D4",
"Q  c #D1D5D5",
"!  c #D2D4D4",
"~  c #D3D5D6",
"^  c #D4D6D6",
"/  c #DBE1E1",
"(  c #DCE1E1",
")  c #DCE2E2",
"_  c #DDE2E2",
"`  c #DEE2E2",
"'  c #DEE3E3",
"]  c #E0E4E4",
"[  c #E2E6E6",
"{  c #E4E8E8",
"}  c #E6EAEA",
"|  c #E8EBEB",
" . c #EAEDED",
".. c #EDEFEF",
"X. c #EFF1F1",
"o. c #F1F3F3",
/* pixels */
"                                                                                                ",
"                                                                                                ",
"                                                                                                ",
"                                                                                                ",
"        z b b z z z z f f f f f f f f f f a p u u u u u u u u q q i i i i i i i i i 0 9         ",
"        7 5 4 4 4 4 4 4 4 3 3 3 3 3 3 3 3 3 2 2 2 1 1 1 1 1 < < , , , , , , , , , , , 3         ",
"        5 4 4 4 4 4 4 4 3 3 3 3 3 3 3 3 2 1 1 1 1 1 1 1 1 < , , , , , , , , , , , , , ;         ",
"        4 4 4 4 4 4 4 4 3 3 3 3 3 3 3 3 1 1 1 1 1 1 1 < < , , , , , , , , , , : , , ; ;         ",
"        4 4 4 4 4 4 4 3 3 3 3 3 3 3 3 2 2 1 1 1 1 1 < < , , , , , , , , , , , > : ; ; ;         ",
"        4 4 4 4 4 4 3 3 3 3 3 3 3 3 2 2 1 1 1 1 1 < < , , , , , , , , , , , > ; ; ; ; ;         ",
"        4 4 4 4 4 3 3 3 3 3 3 3 2 2 2 1 1 1 1 1 < < , , , , , , , , , , , , ; ; ; ; ; ;         ",
"        4 4 4 4 3 3 3 3 3 3 3 2 2 2 1 1 1 1 1 < , , , , , , , , , , , , , ; ; ; ; ; ; ;         ",
"        4 4 4 3 3 3 3 3 2 2 2 2 1 1 1 1 1 < < , , , , , , , , , , , , , ; ; ; ; ; ; ; -         ",
"        4 3 3 3 3 3 3 3 2 1 2 1 1 1 < < 1 1 , , , , , , , , , , , , : ; ; ; ; ; ; ; - -         ",
"        3 3 3 3 3 3 3 3 1 1 1 1 1 1 < 7 L 5 , , , , , , , , , , , : ; ; ; ; ; ; - - - -         ",
"        3 3 3 3 3 3 2 1 1 1 1 1 1 1 < G o.~ 5 , , , , , , , , , ; ; ; ; ; ; - - - - - -         ",
"        3 3 3 3 3 2 2 2 1 1 1 1 1 < , 5 ~ X.^ 5 , , , , , , , ; ; ; ; ; ; ; - - - - - -         ",
"        3 3 3 3 2 2 1 1 1 1 1 1 < , , , 5 W ..~ 5 , , , , , ; ; ; ; ; ; ; - - - - - - =         ",
"        3 3 3 2 2 1 1 1 1 1 1 1 , , , , , 5 T  .T 5 , , ; ; ; ; ; ; - - - - - - - - = =         ",
"        2 3 2 2 1 1 1 1 1 < 1 < , , , , , , 3 Y | T 5 : ; ; ; ; ; ; - - - - - - - - = =         ",
"        2 2 2 1 1 1 1 1 < < , , , , , , , , , 3 Y } Y 3 ; ; ; ; - - - - - - - - = = = =         ",
"        2 2 1 1 1 1 1 < , , , , , , , , , , , , 3 Y { Y 3 ; ; ; - - - - - - - - = = = &         ",
"        1 1 1 1 1 < < , , , , , , , , , , , , , ; 2 G [ Y 3 ; - - - - - - - - = = = & %         ",
"        1 1 1 1 < < , , , , , , , , , , , , : ; ; ; 2 G ] G 2 - - - - - - - = = = % % %         ",
"        1 1 1 < < , , , , , , , , , , , , : ; ; ; ; 2 F _ Z > - - - - - = = = = % % % %         ",
"        1 1 < < , , , , , , , , , , , , ; ; ; ; ; 2 F _ V ; $ % - - - = = = = % % % % %         ",
"        1 < , , , , , , , , , , , , , ; ; ; ; ; 2 D _ V - $ $ $ $ = = = = = % % % % % %         ",
"        < , , , , , , , , , , , > , ; ; ; ; ; 2 D _ V - $ $ $ $ $ $ * = & % % % % % % %         ",
"        , , , , , , , , , , , > ; ; ; ; ; ; 2 D _ V - $ $ $ $ $ $ $ $ % % % % % % % % %         ",
"        , , , , , , , , , , > ; ; ; ; ; ; 2 D _ V ; $ $ $ $ $ $ $ $ $ $ % % % % % % % %         ",
"        , , , , , , , , , , ; ; ; ; ; ; 2 D _ V ; $ $ $ $ $ $ $ $ $ $ # $ % % % % % % $         ",
"        , , , , , , , , , ; ; ; ; ; ; 2 D _ N ; $ $ $ $ $ $ $ $ $ $ # $ $ $ % % % $ $ $         ",
"        , , , , , , > , ; ; ; ; ; ; - m / M - $ $ $ $ $ $ $ # $ # # # $ # $ $ % $ $ $ $         ",
"        , , , , , > ; ; ; ; ; ; - - - 5 n - $ $ $ $ $ $ $ # $ # # # $ # $ # $ $ $ $ $ $         ",
"        , , , , , : ; ; ; ; ; ; - - - - - $ $ $ $ $ $ $ # $ # # # $ # $ # $ $ $ $ $ $ $         ",
"        , , , > ; ; ; ; ; ; ; ; - - - - - = $ $ $ $ $ # $ # # # $ # $ # $ $ $ $ $ $ # #         ",
"        , , , ; ; ; ; ; ; ; - - - - - - - - = $ $ $ # $ # # # $ # # # # $ $ $ $ $ # # #         ",
"        , , ; ; ; ; ; ; ; - - - - - - - - = = % $ # # # # # # # # # # $ $ $ $ $ # # # #         ",
"        : ; ; ; ; ; ; - - - - - - - - - = = = * % # # # # # # # # # $ $ $ $ $ # # # @ @         ",
"        ; ; ; ; ; ; - - - - - - - - = = = = = * % % # # # # # # # $ $ $ $ $ # # # @ @ @         ",
"        ; ; ; ; ; ; - - - - - - - = = = = % % % % % % $ # # @ # $ $ $ $ # # # # @ @ @ @         ",
"        ; ; ; ; ; - - - - - - - = = = = % % % % % % % $ # @ # # $ $ $ # # # # @ @ @ @ @         ",
"        - ; ; - - - - - - = - = = = & % % % % % % % % % $ # # $ $ $ # # # # @ @ @ @ @ O         ",
"        @ @ + + O O O O O O o o O o o o o X X X X X X X X X X X X X X X X . . . . . . .         ",
"                                                                                                ",
"                                                                                                ",
"                                                                                                ",
"                                                                                                "
};
